<svg width="80" height="80" viewBox="0 0 80 80" fill="none" xmlns="http://www.w3.org/2000/svg">
<path d="M15.3385 6.69922C14.9656 6.65171 14.5829 6.66236 14.1927 6.70573C14.1312 6.71256 14.0722 6.70937 14.0104 6.71875C13.5613 6.75874 13.125 6.88941 12.7279 7.10287C12.4807 7.23412 12.251 7.39599 12.0443 7.58464C10.7364 8.56883 10 10.2399 10 11.6797V39.8763V68.6393C10 70.0787 10.687 71.918 12.3372 72.8125C13.9875 73.707 15.8553 73.3013 17.0833 72.5586C17.0855 72.5564 17.0877 72.5543 17.0898 72.5521C16.8908 72.6734 18.0116 72.0212 19.4271 71.2174C20.8426 70.4137 22.8109 69.2955 25.1432 67.9753C29.8079 65.3349 35.938 61.8695 42.0768 58.3984C48.2156 54.9274 54.3651 51.4554 59.0625 48.7956C61.4112 47.4657 63.3938 46.3411 64.8372 45.5208C66.278 44.7021 66.9879 44.2999 67.4219 44.0365C68.7153 43.2522 70.0263 41.7383 70 39.7852C69.9737 37.832 68.6601 36.4076 67.4154 35.7031C66.8583 35.3886 54.6952 28.5166 42.526 21.6341C36.4414 18.1929 30.3564 14.7489 25.7096 12.1159C23.3862 10.7994 21.4201 9.68117 20 8.8737C18.5799 8.06623 17.5084 7.44701 17.6172 7.51302C17.615 7.51302 17.6128 7.51302 17.6107 7.51302C16.9538 7.11613 16.1735 6.80559 15.3385 6.69922ZM16.6667 17.832L35.8529 39.8568L16.6667 61.888V39.8763V17.832ZM28.6523 21.4453C32.1259 23.4107 35.4137 25.2682 39.2448 27.4349C41.6768 28.8103 42.057 29.0256 44.2188 30.2474L40.2734 34.7786L28.6523 21.4453ZM50.1367 33.5872C54.0161 35.7786 59.8791 39.0944 61.263 39.8763C59.8449 40.6819 58.0085 41.7299 55.7747 42.9948C54.2227 43.8736 51.9793 45.1444 50.1628 46.1719C50.0983 46.075 50.0287 45.9815 49.9544 45.8919L44.694 39.8568L49.9544 33.8151C50.0185 33.7418 50.0793 33.6658 50.1367 33.5872ZM40.2734 44.9349L44.2578 49.5052C42.3296 50.5954 40.7709 51.4807 38.7956 52.5977C35.0827 54.697 31.9388 56.478 28.5547 58.3919L40.2734 44.9349Z" fill="#1F36A9"/>
</svg>
