<svg width="80" height="80" viewBox="0 0 80 80" fill="none" xmlns="http://www.w3.org/2000/svg">
<path d="M16.6667 10C12.9833 10 10 12.9833 10 16.6667V63.3333C10 67.0167 12.9833 70 16.6667 70H63.3333C67.0167 70 70 67.0167 70 63.3333V16.6667C70 12.9833 67.0167 10 63.3333 10H16.6667ZM16.6667 16.6667H63.3333V63.3333H16.6667V16.6667ZM25.931 21.0547C23.0743 21.0547 21.3607 22.7719 21.3607 25.0586C21.3607 27.3453 23.0745 29.056 25.6445 29.056C28.5012 29.056 30.2148 27.3453 30.2148 25.0586C30.2148 22.7719 28.501 21.0547 25.931 21.0547ZM21.5885 33.3333V56.6667H30V33.3333H21.5885ZM36.9401 33.3333V56.6667H45.3516V43.9128C45.3516 40.1161 48.0604 39.5703 48.8737 39.5703C49.687 39.5703 51.862 40.3861 51.862 43.9128V56.6667H60V43.9128C60 36.5894 56.7458 33.3333 52.6758 33.3333C48.6058 33.3333 46.4349 34.6885 45.3516 36.5885V33.3333H36.9401Z" fill="#1F36A9"/>
</svg>
