<svg width="80" height="80" viewBox="0 0 80 80" fill="none" xmlns="http://www.w3.org/2000/svg">
<g clip-path="url(#clip0_50_436)">
<path d="M63.5002 16.3667C57.2668 10.1 48.9668 6.66669 40.1335 6.66669C21.9335 6.66669 7.10016 21.5 7.10016 39.7C7.10016 45.5334 8.6335 51.2 11.5002 56.2L6.8335 73.3334L24.3335 68.7334C29.1668 71.3667 34.6002 72.7667 40.1335 72.7667C58.3335 72.7667 73.1668 57.9334 73.1668 39.7334C73.1668 30.9 69.7335 22.6 63.5002 16.3667ZM40.1335 67.1667C35.2002 67.1667 30.3668 65.8334 26.1335 63.3334L25.1335 62.7334L14.7335 65.4667L17.5002 55.3334L16.8335 54.3C14.1002 49.9334 12.6335 44.8667 12.6335 39.7C12.6335 24.5667 24.9668 12.2334 40.1002 12.2334C47.4335 12.2334 54.3335 15.1 59.5002 20.3C64.7002 25.5 67.5335 32.4 67.5335 39.7334C67.6002 54.8667 55.2668 67.1667 40.1335 67.1667ZM55.2002 46.6334C54.3668 46.2334 50.3002 44.2334 49.5668 43.9334C48.8002 43.6667 48.2668 43.5334 47.7002 44.3334C47.1335 45.1667 45.5668 47.0334 45.1002 47.5667C44.6335 48.1334 44.1335 48.2 43.3002 47.7667C42.4668 47.3667 39.8002 46.4667 36.6668 43.6667C34.2002 41.4667 32.5668 38.7667 32.0668 37.9334C31.6002 37.1 32.0002 36.6667 32.4335 36.2334C32.8002 35.8667 33.2668 35.2667 33.6668 34.8C34.0668 34.3334 34.2335 33.9667 34.5002 33.4334C34.7668 32.8667 34.6335 32.4 34.4335 32C34.2335 31.6 32.5668 27.5334 31.9002 25.8667C31.2335 24.2667 30.5335 24.4667 30.0335 24.4334C29.5335 24.4334 29.0002 24.4334 28.4335 24.4334C27.8668 24.4334 27.0002 24.6334 26.2335 25.4667C25.5002 26.3 23.3668 28.3 23.3668 32.3667C23.3668 36.4334 26.3335 40.3667 26.7335 40.9C27.1335 41.4667 32.5668 49.8 40.8335 53.3667C42.8002 54.2334 44.3335 54.7334 45.5335 55.1C47.5002 55.7334 49.3002 55.6333 50.7335 55.4333C52.3335 55.2 55.6335 53.4334 56.3002 51.5C57.0002 49.5667 57.0002 47.9334 56.7668 47.5667C56.5335 47.2 56.0335 47.0334 55.2002 46.6334Z" fill="#1F36A9"/>
</g>
<defs>
<clipPath id="clip0_50_436">
<rect width="80" height="80" fill="white"/>
</clipPath>
</defs>
</svg>
